<!-- Generator: Adobe Illustrator 21.1.0, SVG Export Plug-In  -->
<svg version="1.1"
	 xmlns="http://www.w3.org/2000/svg" xmlns:xlink="http://www.w3.org/1999/xlink" xmlns:a="http://ns.adobe.com/AdobeSVGViewerExtensions/3.0/"
	 x="0px" y="0px" width="37.8px" height="53px" viewBox="0 0 37.8 53" style="enable-background:new 0 0 37.8 53;"
	 xml:space="preserve">
<style type="text/css">
	.st0{fill:#FFFFFF;stroke:#999999;stroke-width:2;stroke-miterlimit:10;}
</style>
<defs>
</defs>
<g>
	<g>
		<path class="st0" d="M33.7,35.5l-20.3,2.7c0.7,0.9,1.4,1.8,2.1,2.6l20.4-2.7L33.7,35.5z"/>
		<path class="st0" d="M7.7,19.9c0.5-0.7,1.2-1.3,1.8-1.8c-1.2-0.8-2-2.2-2-3.7c0-0.4,0-0.7,0.1-1c-13.2,6.3-3.3,27.6-0.8,32.5h13.3
			c-1.5-1.3-3.2-3-4.8-4.9c-0.7-0.8-1.4-1.7-2.1-2.6C8.6,31.7,4.9,23.7,7.7,19.9z"/>
		<path class="st0" d="M16.3,16.1c1,0,1.9,0.1,2.7,0.2l2.5,10.1l6.1-1l-3-21l0,0l-8.2,1.3l0,0l1.5,6c-0.8,0-1.5,0-2.2,0
			c0.6,0.8,1,1.7,1,2.8C16.6,14.9,16.5,15.5,16.3,16.1z"/>
		<path class="st0" d="M9.6,18.1c0.7,0.5,1.6,0.8,2.5,0.8c1.9,0,3.5-1.2,4.2-2.8c0.2-0.5,0.3-1.1,0.3-1.7c0-1.1-0.4-2-1-2.8
			c-0.8-1.1-2.1-1.7-3.6-1.7c-2.1,0-3.9,1.5-4.4,3.5c-0.1,0.3-0.1,0.7-0.1,1C7.6,15.9,8.4,17.3,9.6,18.1z M14.6,14.3
			c0,1.4-1.1,2.5-2.5,2.5c-1.4,0-2.5-1.1-2.5-2.5s1.1-2.5,2.5-2.5C13.5,11.9,14.6,13,14.6,14.3z"/>
		<circle class="st0" cx="12.1" cy="14.3" r="2.5"/>
		<polygon class="st0" points="21.5,28.2 28.6,27 27.6,25.3 21.5,26.3 		"/>
		<polyline class="st0" points="14.5,1.3 16.4,5.6 16.4,5.6 24.6,4.2 24.6,4.2 24.6,0 		"/>
		<polygon class="st0" points="3.8,45.8 2,52 34.2,52 32,45.8 20.2,45.8 6.9,45.8 		"/>
	</g>
</g>
</svg>
