<!-- Generator: Adobe Illustrator 21.1.0, SVG Export Plug-In  -->
<svg version="1.1"
	 xmlns="http://www.w3.org/2000/svg" xmlns:xlink="http://www.w3.org/1999/xlink" xmlns:a="http://ns.adobe.com/AdobeSVGViewerExtensions/3.0/"
	 x="0px" y="0px" width="49.4px" height="47.5px" viewBox="0 0 49.4 47.5" style="enable-background:new 0 0 49.4 47.5;"
	 xml:space="preserve">
<style type="text/css">
	.st0{fill:#B3B3B3;}
</style>
<defs>
</defs>
<g>
	<path class="st0" d="M41.8,17l1.3-1.2l-7.3-8L33.2,5c0.2,1.1,0.5,2.4,1.1,3.7l3.3,3.6L41.8,17z"/>
	<path class="st0" d="M15.4,40.5l1.3-1.2l-3.5-3.8l-3.1-3.4c-1.2-0.6-2.4-1.1-3.5-1.3L9,33.4L15.4,40.5z"/>
	<path class="st0" d="M5.9,33.5L4.6,32c-0.6,0.1-1.2,0.3-1.8,0.6L4,33.9l5.1,5.6l1.3-1.2L5.9,33.5z"/>
	<path class="st0" d="M10.4,38.3l-1.3,1.2l5.1,5.6c0.3-0.6,0.5-1.2,0.6-1.9L10.4,38.3z"/>
	<path class="st0" d="M31.1,17.5l-1.8-1.9c-1.1-0.4-2.2-0.8-3.2-0.9l3.7,4L31.1,17.5z"/>
	<path class="st0" d="M31.1,17.5l-1.3,1.2l3.7,4l1.5,1.6c0.1-0.9,0-1.8-0.2-2.8l-1.9-2.1L31.1,17.5z"/>
	<path class="st0" d="M28.1,20.2l-1.3,1.2l5,5.5l1.2,1.3c0.3-0.6,0.6-1.2,0.7-1.8l-1.3-1.5L28.1,20.2z"/>
	<path class="st0" d="M28.1,20.2l-4.3-4.7c-0.7,0-1.4,0.1-2,0.4l5,5.5L28.1,20.2z"/>
	<path class="st0" d="M25.1,23l-5.2-5.6c-0.2,0.1-0.4,0.3-0.6,0.5c-0.2,0.2-0.4,0.4-0.6,0.7l5.1,5.6L25.1,23z"/>
	<path class="st0" d="M25.1,23l-1.3,1.2l5.1,5.6l1.1,1.2c0.2-0.2,0.5-0.4,0.7-0.6c0.2-0.2,0.4-0.4,0.6-0.6l-1.1-1.2L25.1,23z"/>
	<path class="st0" d="M22.1,25.7l-5-5.5c-0.3,0.6-0.5,1.3-0.5,2l4.3,4.7L22.1,25.7z"/>
	<path class="st0" d="M22.1,25.7l-1.3,1.2l4.3,4.7l1.3,1.5c0.6-0.1,1.3-0.3,1.8-0.6l-1.2-1.3L22.1,25.7z"/>
	<path class="st0" d="M19.2,28.3l-3.7-4.1c0.1,1,0.3,2.1,0.6,3.2l1.8,2L19.2,28.3z"/>
	<path class="st0" d="M19.2,28.3l-1.3,1.2l1.8,2l1.9,2.1c0.9,0.3,1.8,0.4,2.7,0.4l-1.5-1.6L19.2,28.3z"/>
	<g>
		<path class="st0" d="M14.7,33.1l1.7-1.6c-0.2-1.1-0.3-2.2-0.4-3.3c-0.1-1.3-0.1-2.6,0.1-3.9c0.1-0.5,0.2-0.9,0.3-1.4
			c0.3-0.9,0.7-1.8,1.3-2.6c0.2-0.3,0.5-0.7,0.8-1c0.3-0.4,0.6-0.7,1-1c0.3-0.3,0.7-0.6,1-0.8c0.4-0.3,0.8-0.6,1.2-0.8
			c0.9-0.5,1.8-0.8,2.7-1c0.5-0.1,1-0.2,1.5-0.2c1.3-0.1,2.6,0,3.9,0.2c1,0.2,2.1,0.4,3.2,0.7l1.7-1.6c-0.1,0-0.3-0.1-0.4-0.1
			c-0.5-0.1-1.1-0.3-1.6-0.4c-1.6-0.4-3.2-0.7-4.8-0.7c-1.2-0.1-2.3,0-3.5,0.3c-2,0.4-4.1,1.4-6.1,3.3c-2,1.8-3.2,3.8-3.8,5.7
			c-0.3,1.1-0.5,2.3-0.6,3.4c-0.1,1.6,0.1,3.3,0.3,4.9c0.1,0.5,0.2,1.1,0.2,1.6C14.7,32.8,14.7,32.9,14.7,33.1z"/>
		<path class="st0" d="M42.8,15.5c-1.2,0.2-2.5,0.1-3.7,0c-1.4-0.2-2.8-0.5-4.2-0.8l-1.7,1.6c0.2,0,0.4,0.1,0.5,0.1
			c0.5,0.1,1,0.2,1.5,0.3c1.9,0.4,3.8,0.8,5.7,0.8c0.2,0,0.3,0,0.5,0c2.7-0.1,5.4-1,8.1-3.4l-1.1-1.2c-0.5,0.5-1,0.8-1.5,1.2
			c-0.9,0.6-1.7,1-2.6,1.2C43.8,15.3,43.3,15.4,42.8,15.5z"/>
		<path class="st0" d="M16.4,31.5l-1.7,1.6c0.2,1.3,0.4,2.6,0.4,3.8c0.1,1.3,0,2.6-0.2,3.8c-0.1,0.5-0.2,1-0.4,1.4
			c-0.3,0.9-0.8,1.7-1.4,2.5c-0.4,0.5-0.9,1.1-1.5,1.6l1.1,1.2c4.8-4.4,4.6-9.2,3.9-14c-0.1-0.5-0.1-1-0.2-1.5
			C16.5,31.8,16.5,31.7,16.4,31.5z"/>
	</g>
	<g>
		<path class="st0" d="M14.6,32.9l1.7-1.6c1.1,0.3,2.2,0.5,3.2,0.7c1.3,0.2,2.6,0.3,3.9,0.2c0.5,0,1-0.1,1.4-0.2
			c0.9-0.2,1.8-0.5,2.7-1c0.4-0.2,0.7-0.4,1.1-0.7c0.4-0.3,0.8-0.6,1.1-0.9c0.3-0.3,0.6-0.6,0.9-0.9c0.3-0.4,0.6-0.7,0.9-1.1
			c0.6-0.9,1-1.7,1.3-2.6c0.2-0.5,0.3-1,0.4-1.5c0.2-1.3,0.2-2.6,0.1-3.9c-0.1-1.1-0.2-2.1-0.4-3.2l1.7-1.6c0,0.1,0,0.3,0.1,0.4
			c0.1,0.5,0.2,1.1,0.2,1.6c0.2,1.6,0.4,3.2,0.3,4.9c0,1.2-0.2,2.3-0.6,3.4c-0.6,2-1.8,3.9-3.8,5.8c-2,1.8-4,2.8-6,3.2
			c-1.2,0.2-2.3,0.3-3.5,0.3c-1.6-0.1-3.3-0.4-4.9-0.7C16,33.2,15.5,33.1,15,33C14.8,32.9,14.7,32.9,14.6,32.9z"/>
		<path class="st0" d="M34.6,6.5c-0.3,1.2-0.4,2.4-0.3,3.7c0.1,1.4,0.2,2.8,0.5,4.2L33,16c0-0.2-0.1-0.4-0.1-0.5
			c-0.1-0.5-0.1-1-0.2-1.5c-0.3-1.9-0.4-3.9-0.3-5.8c0-0.2,0-0.3,0.1-0.5c0.3-2.7,1.4-5.3,4.1-7.8l1.1,1.2c-0.5,0.5-0.9,0.9-1.3,1.4
			c-0.6,0.8-1.1,1.6-1.4,2.5C34.8,5.5,34.7,6,34.6,6.5z"/>
		<path class="st0" d="M16.3,31.3l-1.7,1.6c-1.3-0.3-2.5-0.6-3.7-0.8C9.5,31.9,8.2,31.8,7,32c-0.5,0.1-1,0.2-1.5,0.3
			c-0.9,0.2-1.8,0.6-2.7,1.1c-0.6,0.4-1.2,0.8-1.7,1.3L0,33.5c4.8-4.4,9.6-3.7,14.3-2.7c0.5,0.1,1,0.2,1.5,0.3
			C15.9,31.2,16.1,31.3,16.3,31.3z"/>
	</g>
</g>
</svg>
