<!-- Generator: Adobe Illustrator 21.1.0, SVG Export Plug-In  -->
<svg version="1.1"
	 xmlns="http://www.w3.org/2000/svg" xmlns:xlink="http://www.w3.org/1999/xlink" xmlns:a="http://ns.adobe.com/AdobeSVGViewerExtensions/3.0/"
	 x="0px" y="0px" width="42px" height="41px" viewBox="0 0 42 41" style="enable-background:new 0 0 42 41;" xml:space="preserve">
<style type="text/css">
	.st0{fill:#B3B3B3;}
	.st1{fill:#FFFFFF;}
	.st2{fill:none;stroke:#B3B3B3;stroke-width:3;stroke-miterlimit:10;}
</style>
<defs>
</defs>
<g>
	<g>
		<path class="st0" d="M36.2,8.3c0.9,0.9,2,1.4,2.9,2.4c-1.2,0.9-2.5,1.7-4,2c-0.9-0.6-1.6-1.5-2.5-2.2c-1-0.7-2.1-1.3-3.2-2.1
			c-0.5-0.3-1-0.5-1.5-0.6c-0.1,0-0.3,0.1-0.3,0.1c0.3-0.3,0.7-0.4,1.1-0.6c1-0.5,2-1.1,3.1-1.2C33.5,6.3,35,7.2,36.2,8.3z"/>
		<path class="st0" d="M30.4,9.8c-0.1,1.8,0.9,3.6,0.7,5.4c-0.1,0.3-0.2,0.7-0.5,0.8c-1.5-0.7-2.7-1.9-3.7-3.2
			c-0.4-1.5-0.3-3,0.2-4.4C28.4,8.4,29.4,9.1,30.4,9.8z"/>
		<path class="st0" d="M26.8,13.4c1,1.2,2.1,2.6,3.6,3.1c-1.5,0.5-2.9,1.2-4.5,1.3c-1.4-0.4-2.2-1.8-3-2.9c-0.9-1.1-1.4-2.4-2.4-3.4
			c-0.5-0.5-1-1-1.7-1.1c1.1-0.4,2.2-0.6,3.3-0.9c0.6-0.1,1.3-0.3,1.9,0.2C25.3,10.6,25.8,12.2,26.8,13.4z"/>
		<path class="st0" d="M19.6,11.3c0.6,0.6,1.3,1.2,1.7,1.9c0.2,0.8,0.1,1.6,0.2,2.4c0.1,0.9,0.4,1.8,0.1,2.6
			c-0.5-0.1-1.1-0.3-1.5-0.8c-0.8-0.9-1.8-1.7-2.6-2.6c-0.2-1.5-0.1-3.1,0.8-4.2C18.8,10.6,19.2,11,19.6,11.3z"/>
		<path class="st0" d="M21.2,18.6L21.2,18.6c-1.2,0.8-2.4,1.5-3.8,1.8c-0.3,0.1-0.6-0.1-0.8-0.3c-0.9-0.8-1.8-1.6-2.7-2.4
			c-1-0.7-2-1.4-2.9-2.1c-0.3-0.2-0.7-0.3-1-0.4c1.2-0.8,2.4-1.9,4-2.1c2.3,0.8,3.9,2.8,5.7,4.4C20.1,18,20.5,18.7,21.2,18.6z"/>
		<path class="st0" d="M10.9,16.3c0.8,0.6,1.6,1.1,2.4,1.7c0.3,0.5,0.3,1.1,0.3,1.7c0,0.8,0.1,1.7-0.2,2.5c-1.3-0.1-2.4-0.8-3.5-1.5
			c-0.2-0.9-0.2-1.9-0.5-2.8c-0.2-0.7-0.5-1.5,0-2.1C9.9,15.8,10.4,15.9,10.9,16.3z"/>
		<path class="st0" d="M12.8,22.7c0.1,0,0.3-0.1,0.4-0.2c-0.9,1-1.9,1.9-3.1,2.6c-0.9,0.5-1.9-0.1-2.7-0.6c-1.7-1.1-3.3-2.6-5.2-2.9
			c-0.2,0.1-0.5,0.2-0.6,0.3c0.1-0.1,0.1-0.2,0.2-0.3c1-1,1.7-2.2,2.9-2.9c0.4-0.1,0.8-0.2,1.2,0c1.4,0.5,2.4,1.5,3.6,2.3
			C10.5,21.6,11.6,22.3,12.8,22.7z"/>
	</g>
	<path class="st1" d="M23.4,23.2"/>
	<path class="st2" d="M2.3,21.3c-1.3,1.4-0.6,2.4-0.3,4.1c0.3,1.9,1.2,2.6,2.1,3.1c1.1,0.6,3.3,2.2,4.6,2.2c1.3,0,3.6-1.6,4.8-2.3
		c2.2-1.2,5.5-3.6,7.4-6.6c1.1-1.7,1.7-2.5,3.3-3.8c0.9-0.7,1-1.1,1.9-0.6c1.2,0.5,0.2,1.3-0.3,2.5c-1.6,3.4-3.3,6.7-4.9,10.1
		c-0.7,1.5-1.4,3-2.2,4.5c-0.2,0.5-0.1,3.6,0.3,4c1.4,1.5,2,1.3,3.8-0.1c1.2-1,1.4-1.6,2-2.9c1.9-4.4,2.6-9.4,5.7-13.2
		c0.8-1,1.6-5,2.7-5.6c1.4-0.9,2.1-1.4,3.8-1.6c0.9-0.1,2.7,1.9,3.5,1.3"/>
	<path class="st2" d="M38.7,10.6C43.9,7.2,36,3.2,34.1,1"/>
</g>
</svg>
